<svg width="360" height="360" viewBox="0 0 360 360" fill="none" xmlns="http://www.w3.org/2000/svg">
  <g opacity="0.44">
    <path d="M314 24C274 44 248 80 242 120C280 120 318 98 336 64C343 52 348 40 350 28C338 23 326 21 314 24Z" fill="#E3D1AA"/>
    <path d="M250 92C210 110 182 144 174 186C218 186 262 160 282 122C290 108 296 94 298 80C282 78 266 81 250 92Z" fill="#DCC598"/>
    <path d="M308 126C270 146 244 178 238 214C278 214 320 190 338 156C345 144 350 132 352 120C338 116 322 116 308 126Z" fill="#E6D8B9"/>
    <path d="M196 172C158 192 132 224 126 260C166 260 206 236 226 204C234 192 240 178 242 166C226 164 210 164 196 172Z" fill="#D8C08F"/>
    <ellipse cx="274" cy="250" rx="66" ry="40" transform="rotate(-34 274 250)" fill="#EFE3CC"/>
  </g>
</svg>
